<svg viewBox="0 0 100 100" xml:space="preserve" xmlns="http://www.w3.org/2000/svg" enable-background="new 0 0 100 100"><g id="Layer_2"><path d="M53.594 7.743c23.205 3.568 33.907 14.603 36.862 37.975.274 2.159-.53 5.407 2.55 5.467 3.219.062 2.443-3.139 2.47-5.3.273-22.013-18.92-42.419-41.211-43.172-1.682.242-5.162-1.16-5.379 2.61-.144 2.541 2.786 2.124 4.708 2.42zM89.405 71.095c-7.788-5.494-17.581-16.008-25.212-4.297-2.547 3.856-6.112 4.024-9.84 2.333-10.277-4.66-18.212-11.839-22.861-22.285-5.482-12.975 7.939-10.538 7.69-19.584-.267-4.924-12.224-21.382-16.946-23.119-1.954-.719-3.9-.672-5.888-.004C5.276 7.862.69 16.968 5.082 27.75c13.103 32.168 36.161 54.562 67.903 68.23 1.81.778 3.82 1.089 4.838 1.369 7.227.073 15.692-6.89 18.137-13.8 2.354-6.648-2.62-9.286-6.555-12.454z" fill-rule="evenodd" clip-rule="evenodd" fill="#ffffff" class="fill-603a88"></path><path d="M58.154 14.133c-2.232-.269-5.179-1.321-5.7 1.777-.545 3.251 2.739 2.921 4.85 3.393 14.332 3.203 19.322 8.42 21.682 22.636.345 2.073-.34 5.299 3.182 4.764 2.61-.398 1.668-3.163 1.886-4.778.116-13.649-11.58-26.072-25.9-27.792z" fill-rule="evenodd" clip-rule="evenodd" fill="#ffffff" class="fill-603a88"></path><path d="M59.511 25.239c-1.49.037-2.952.198-3.5 1.79-.822 2.38.908 2.947 2.669 3.23 5.879.944 8.973 4.411 9.561 10.274.159 1.591 1.169 2.881 2.706 2.699 2.13-.254 2.323-2.15 2.257-3.951.105-6.587-7.34-14.2-13.693-14.042z" fill-rule="evenodd" clip-rule="evenodd" fill="#ffffff" class="fill-603a88"></path></g></svg>